<svg version="1.2" xmlns="http://www.w3.org/2000/svg" viewBox="0 0 1392 252" width="275" height="50">
	<title>hotel-logo</title>
	<style>
		.s0 { fill: #ffffff } 
	</style>
	<path id="Layer" fill-rule="evenodd" class="s0" d="m281.4 201.1v-31h32.5c4-34.3 8-68.1 12-102.6h24.6c26.1 0 52.3 0 78.5 0.2 3.1 0 4.6-1.3 6.1-3.8 25.6-42.4 63.2-64.9 112.8-63.8 46.3 1 81.5 23 105.7 62.4 2.2 3.6 4.2 5.1 8.5 5 28.5-0.2 57 0 85.4-0.2 4 0 5 1.1 5.5 4.9 3.4 31.5 7.2 62.9 10.7 94.3 0.3 3.1 1.5 3.9 4.3 3.9 8.8-0.2 17.6 0 26.9 0v31.3h-6.2q-69.2 0-138.4-0.1-1.3-0.1-2.5 0.2-1.2 0.2-2.2 0.7-1.1 0.5-2.1 1.3-0.9 0.8-1.6 1.8c-50.3 61.5-145.2 61.1-195-0.9q-0.7-0.9-1.5-1.6-0.8-0.7-1.8-1.2-1-0.5-2.1-0.7-1.1-0.2-2.2-0.1-75.5 0.1-151 0.1zm274.3-49.3q2-0.1 4-0.6 2-0.5 3.9-1.3 1.8-0.9 3.5-2.1 1.6-1.2 3-2.7c11.5-11.5 10-30.9-2.6-42.9-20.5-19.3-56.3-9.5-66.1 20.2-9 27.2 6.9 56.3 34.2 65.4 39.9 13.2 82.2-19.7 81.2-63-1-42.9-41.5-76.7-83.9-70.7-50.8 7.1-85.5 57.4-68.6 110.7 14.6 45.9 63 72.8 110.2 62.5 54.2-11.8 86.5-67.7 76.9-119.6-8.4-44.7-35-74.7-79-86.4-43.2-11.5-80.7 1.1-110.3 34.8-18.9 21.4-28.6 53.6-25 75.6 1.7-8 3-18.9 6.4-29 15.8-48.3 66.1-78.5 116-70 10.2 1.6 20.1 5 29.2 9.9 9.1 4.8 17.4 11.2 24.5 18.7 7.1 7.5 12.9 16.2 17.2 25.6 4.3 9.4 7.1 19.5 8.1 29.8 3.6 33.4-9 61.3-36.7 80.8-47.6 33.5-109.4 10-123-42.3-7.4-28.1 3.4-58.3 28.3-74.6 36.7-24.1 80.6-5.5 91.3 30.9 8.5 28.8-10.4 59.2-40.1 62.8-28 3.4-50.4-23.1-41.1-48.8 5.7-16.1 26.5-23 39.3-13 10.6 8.4 15.9 25.5-0.8 39.3zm-146.2-52.9h-33c-2.7 23.6-5.5 47-8.2 70.6h49.3c-2.7-23.7-5.4-47-8.1-70.6zm258.8 0c4.1 24.3 3.1 47.9-5.7 71.1h44c-2.7-23.8-5.5-47.4-8.2-71.1z"/>
	<path id="Layer" fill-rule="evenodd" class="s0" d="m1060.6 200.7v-132.6q0.2 0 0.5-0.1 0.2 0 0.5-0.1 0.2 0 0.5-0.1 0.3 0 0.5 0c36.5 0 73-0.2 109.5 0.3q2.6 0.1 5.3 0.4 2.6 0.3 5.3 0.8 2.6 0.5 5.2 1.3 2.5 0.7 5 1.7c12.7 4.5 18 14.8 17.4 30.5-0.5 12.9-6.5 20.8-19.2 24.8-5 1.6-10.2 2.5-15.3 4.7 4.4 0.8 8.9 1.4 13.2 2.5 11.5 2.9 21.7 7.9 24.2 20.9 4.3 22.5-3.4 40.4-29.8 44.1q-1.7 0.2-3.4 0.4-1.7 0.1-3.3 0.3-1.7 0.1-3.4 0.1-1.7 0.1-3.4 0.1-51.7 0.1-103.4 0zm58.9-15.2c7 0 13.4 0.3 19.9 0q1.9-0.1 3.8-0.7 1.9-0.7 3.4-1.9 1.6-1.2 2.7-2.8 1.1-1.6 1.7-3.5 1.1-3.4 1.7-6.9 0.6-3.5 0.6-7.1 0-3.6-0.6-7.1-0.5-3.5-1.6-6.9c-1.4-4.2-4.4-7.5-8.8-8-7.5-0.8-15.1-0.8-22.8-1.2zm0.2-102.6v41.9c6.2 0 12 0.1 17.8 0 7-0.2 12.1-3.8 13.1-10.7q0.3-2.5 0.4-5.1 0.2-2.5 0.2-5.1 0-2.5-0.2-5-0.1-2.6-0.4-5.1c-0.9-6.4-5.6-10.3-12-10.7-6.2-0.5-12.3-0.2-18.9-0.2z"/>
	<path id="Layer" fill-rule="evenodd" class="s0" d="m1310.4 63.9c11.3 1.9 25.3 3.2 38.6 6.9 26 7.4 41.2 26.7 42.5 53.6q0.3 4.3 0.3 8.5 0 4.2-0.3 8.4-0.3 4.3-0.9 8.5-0.6 4.1-1.5 8.3c-4.9 21.7-20.1 34.4-40.9 40.3q-9.7 2.7-19.7 4.1-9.9 1.5-20 1.5-10.1 0.1-20.1-1.1-9.9-1.3-19.7-3.9c-30.5-8-45.6-28.4-46.4-61.1-0.3-13.8 1.2-27.3 7.8-39.7 9.9-18.2 26.5-26.6 45.9-30.3 10.4-1.9 21.1-2.5 34.4-4zm-25.7 70.7h-0.9c0 3.1-0.2 6.3 0 9.4 0.6 9 0.5 18 2.3 26.8 2.2 11.3 10 16.7 21 16.8 11 0 18.2-5.6 21.3-16.6q0.3-0.9 0.6-1.8 0.2-0.9 0.3-1.9 0.2-0.9 0.3-1.8 0.1-0.9 0.2-1.9c0.3-17.8 0.7-35.6 0.4-53.3 0-5.6-1.6-11.2-3.4-16.5-3.1-8.7-10-12.4-19-12.6-9-0.1-16.4 3.2-20 12-1.5 3.5-2.9 7.2-3 11-0.3 10.1-0.1 20.2-0.1 30.4z"/>
	<path id="Layer" class="s0" d="m1046.9 120.7l-61 5.2c0-6.7 0.3-13-0.1-19.2q-0.1-1.4-0.3-2.9-0.2-1.4-0.5-2.8-0.3-1.4-0.7-2.8-0.4-1.3-0.8-2.7c-3.2-9.4-9.6-14.1-19-14.2-9.3-0.1-15.9 4.3-19.4 13.5-3.5 9.3-3.9 18.8-3.2 28.8h32.5v15.6h-31.1c0.5 12.8 8.4 23 20.7 26.3q4.7 1.3 9.6 1.9 4.9 0.5 9.9 0.4 4.9-0.2 9.8-1.1 4.8-0.9 9.5-2.5c9.2-3.2 15.7-9.2 18.6-19.2l25.6 2.6c-1.9 19.9-10 35.2-27.3 44.9-12.7 7-26.5 9.6-40.8 10.6-18.7 1.4-37.3 0.7-55.3-5.2-24.9-8.2-38.2-25.9-40.6-51.5q-0.3-3.7-0.4-7.3-0.1-3.7 0-7.4 0.1-3.7 0.4-7.3 0.3-3.7 0.9-7.3c3.3-23 16.5-38.8 38.7-45.8 7.1-2.3 14.3-4 21.7-5.1 7.4-1.2 14.8-1.7 22.3-1.7 7.4 0.1 14.9 0.7 22.2 2 7.4 1.2 14.6 3 21.7 5.4 22.6 7.5 36.1 26 36.4 48.8z"/>
	<path id="Layer" class="s0" d="m59 68v47.7c0 18.7 4.5 22.8 23 21.2 9.4-0.9 9.4-0.9 9.4-10.2v-58.7h58.5v132.4h-58.5v-47.7c-8.5 0.7-16.3 2.1-24 1.8-12.1-0.4-24.4-0.7-36.2-3.1-18.7-3.7-29.1-16.1-30.4-35.3-1-14.9-0.6-30-0.8-44.9 0-1 0.1-1.9 0.2-3.1z"/>
	<path id="Layer" class="s0" d="m258.9 125.8c6.2-14.8 11.9-28.7 17.7-42.6 2.2-5.1 3-12 6.9-14.6 3.9-2.5 10.6-0.8 16.1-0.8 2.8 0 5.6 0 9.3 0-2.5 4.8-4.8 9.2-7 13.5q-23.1 44.3-46.2 88.5c-10.8 20.4-28.2 30.3-50.8 32-10.6 0.8-21.2 1.4-32.3 2.2-1-11.9-1.9-23.2-2.9-35.8 6 0 11.7 0.2 17.4 0 10.8-0.3 21.6-0.8 32.4-1.5 2.9-0.2 5.6-1.8 9.3-3l-70-95.5c1.6-0.2 2.8-0.4 4-0.4 19.7 0 39.3 0 59-0.1 3.1 0 4.8 1 6.2 3.7 9.5 17.3 19.2 34.6 28.9 51.9q0.2 0.3 0.4 0.6 0.3 0.4 0.5 0.7 0.3 0.3 0.6 0.6 0.2 0.3 0.5 0.6z"/>
	<path id="Layer" class="s0" d="m868.8 68v132.4h-58.5v-132.4z"/>
</svg>